<svg width="25" height="24" viewBox="0 0 25 24" fill="none" xmlns="http://www.w3.org/2000/svg">
<path fill-rule="evenodd" clip-rule="evenodd" d="M5.9853 5.99878H21.968L20.6963 13.1701C20.6117 13.6474 20.1968 13.9951 19.7121 13.9951H6.97611C6.4635 13.9951 6.04103 13.6093 5.98329 13.1122L5.97656 12.9943V12.9943L5.9853 5.99878Z" stroke="white" stroke-width="1.99909" stroke-linecap="round" stroke-linejoin="round"/>
<path d="M3.97656 3H5.96571L5.97565 6.99817" stroke="white" stroke-width="1.99909" stroke-linecap="round" stroke-linejoin="round"/>
<path fill-rule="evenodd" clip-rule="evenodd" d="M15.4727 18.9927C15.4727 17.8887 16.3677 16.9937 17.4717 16.9937C18.5757 16.9937 19.4708 17.8887 19.4708 18.9927C19.4708 20.0968 18.5757 20.9918 17.4717 20.9918C16.4016 20.9918 15.5253 20.0498 15.4727 18.9927Z" stroke="white" stroke-width="1.99909" stroke-linecap="round" stroke-linejoin="round"/>
<path fill-rule="evenodd" clip-rule="evenodd" d="M8.47561 20.9918C7.37157 20.9918 6.47656 20.0968 6.47656 18.9927C6.47656 17.8887 7.37157 16.9937 8.47561 16.9937C9.57966 16.9937 10.4747 17.8887 10.4747 18.9927C10.4747 20.0968 9.57966 20.9918 8.47561 20.9918Z" stroke="white" stroke-width="1.99909" stroke-linecap="round" stroke-linejoin="round"/>
<path d="M8.47438 13.9951V16.9937" stroke="white" stroke-width="1.99909" stroke-linecap="round" stroke-linejoin="round"/>
<path d="M14.9728 18.9927H10.9746" stroke="white" stroke-width="1.99909" stroke-linecap="round" stroke-linejoin="round"/>
</svg>
